<svg xmlns="http://www.w3.org/2000/svg" viewBox="0 0 466.26 53.47"><defs><style>.cls-1{fill:#473084}</style></defs><g id="Layer_2" data-name="Layer 2"><g id="Layer_1-2" data-name="Layer 1"><path class="cls-1" d="M301.68 14.92c4.8 5.89 9.19 12.11 14 18-.06-5.57.22-11.15-.15-16.69l2.89-.06c-.45 7.9 0 15.83-.21 23.74-4.82-5.88-9.32-12-14-18v15.07a11.48 11.48 0 0 0 .27 2.54h-3a50.52 50.52 0 0 0 .19-6.51q.01-9.07.01-18.09zM0 39.47c3.6-7.85 6.79-15.89 10.28-23.8 3.84 7.88 7.19 16 11.13 23.81h-3.43a42.89 42.89 0 0 0-2.33-6.36H5.57c-.71 2.15-1.89 4.14-2.33 6.37zm6.34-8.65h8.22C13.3 27.5 11.7 24.3 10.48 21 9 24.18 7.69 27.52 6.34 30.82zM28.58 16.09c2.12-.88 4.4 0 6.57.11v3.18c-1.39-.93-3-1.76-4.76-1.37-2.1.39-3.32 3.46-1.49 4.9 2.51 2 6 3 7.63 6a7.51 7.51 0 0 1-8.45 10.84 7.15 7.15 0 0 0-3.12-.18v-3.76a6.42 6.42 0 0 0 8.72 0 5 5 0 0 0 0-6.56c-2-2.18-5.18-2.77-7.14-5a5.42 5.42 0 0 1 2.04-8.16zM59 15.78c2.42 1 4.94-.69 7.4.13a7.51 7.51 0 0 1 5.35 9.79 6.16 6.16 0 0 1-2.8 3 8.19 8.19 0 0 1 5.68 5.16c.8 1.76.86 3.72 1.19 5.59h-3a8 8 0 0 0-2.64-7.69 15.42 15.42 0 0 0-6.69-3.05c1.71-.54 3.63-.9 4.94-2.25 2.08-2.21 1.48-6.35-1.34-7.67-1.72-1-3.73-.59-5.55-.13V36.4a16.45 16.45 0 0 0 .25 3h-3a51.22 51.22 0 0 0 .2-7c.01-5.5.01-11.06.01-16.62zM89.94 15.94a12.4 12.4 0 0 1 13.72 6.8A12.06 12.06 0 0 1 102.44 35a12.4 12.4 0 0 1-19.1 1 12 12 0 0 1-3-10 12.2 12.2 0 0 1 9.6-10.06zm.74 2.4a9.83 9.83 0 0 0-7.82 7.53 9.58 9.58 0 0 0 5.77 10.81 9.93 9.93 0 0 0 12.73-4.77 9.58 9.58 0 0 0-2-10.94 10.14 10.14 0 0 0-8.68-2.63zM136.1 16.14a12.47 12.47 0 0 1 14.45 6.29 12 12 0 0 1-.13 11 12.41 12.41 0 0 1-14.09 6.1 12.11 12.11 0 0 1-.23-23.41zm1.63 2.2a9.86 9.86 0 0 0-7.73 7.07 9.57 9.57 0 0 0 5.3 11.12 9.92 9.92 0 0 0 13.07-4.6 9.54 9.54 0 0 0-1.95-11 10.14 10.14 0 0 0-8.69-2.59zM157.6 23.07a12.57 12.57 0 0 1 9.87-7.24c2.39-.4 4.77.21 7.15.44v3.19a11.39 11.39 0 0 0-9.61-.4 9.71 9.71 0 0 0-5.62 10.62 9.34 9.34 0 0 0 6.22 7.12 12 12 0 0 0 8.77-.41v-7.42a59 59 0 0 0-6.91.15v-2.66c3.12.56 6.32.06 9.47.29-.06 3.71-.11 7.41 0 11.12-4.07 2.08-9.06 3-13.31.9-5.77-2.51-8.45-9.96-6.03-15.7zM197.84 16.14c1.24.06 2.48.07 3.72 0q-4 5.67-8.12 11.26c-.87 1.14-.46 2.68-.56 4 .14 2.67-.3 5.39.34 8H190c.65-1.94.31-4 .38-6a37.28 37.28 0 0 0-.14-5.29c-2.59-4.08-5.51-8-8.18-12h3.59a5.57 5.57 0 0 0 .75 1.89c1.83 2.63 3.48 5.39 5.34 8 1.95-3.33 4.65-6.27 6.1-9.86zM267.21 39.48c3.63-7.84 6.78-15.9 10.28-23.81 3.87 7.87 7.17 16 11.15 23.8h-3.44c-.43-2.23-1.57-4.23-2.34-6.36H272.8c-.71 2.16-1.92 4.13-2.34 6.37-1.09-.02-2.17-.02-3.25 0zm6.34-8.66h8.21c-1.26-3.32-2.8-6.51-4.07-9.83-1.55 3.2-2.77 6.55-4.14 9.83zM336.33 16.1c2.11-.91 4.37 0 6.56.06v3.23a6.61 6.61 0 0 0-4.31-1.45c-2.34 0-3.94 3.4-1.95 5 2.57 2.07 6.18 3.06 7.76 6.21a7.52 7.52 0 0 1-8.59 10.6 6 6 0 0 0-3.15-.14c.05-1.28.06-2.55 0-3.82 2.58 2.45 7.39 2.31 9.32-.85a5.08 5.08 0 0 0-.61-5.77c-2.07-2.21-5.34-2.8-7.28-5.15a5.45 5.45 0 0 1 2.25-7.92zM364.22 16.12a21.19 21.19 0 0 0 3.65 0 3 3 0 0 0 .23 2.48c2.3 5.3 4.44 10.68 6.81 16 1.75-4.62 3.58-9.22 5.35-13.84.53-1.47 1.38-2.9 1.3-4.52h3.5c-1.46 2.28-2.2 4.91-3.3 7.36-2.33 5.46-4.34 11.06-6.88 16.43-1.27-3.21-2.83-6.29-4-9.52-1.4 3.12-2.65 6.31-3.92 9.48-3.9-7.76-6.85-16-10.77-23.72h3.32c.47 2.42 1.7 4.59 2.57 6.89 1.62 3.81 3.06 7.71 4.83 11.46.8-2.35 1.83-4.62 2.67-7-1.88-3.83-3.38-7.78-5.36-11.5zM424.74 15.8a6.9 6.9 0 0 0 4 0 7.8 7.8 0 0 1 7.68 2.83c2.43 3 2 8.28-1.71 10a8.23 8.23 0 0 1 5.64 5.07c.85 1.78.87 3.78 1.22 5.69h-3a8 8 0 0 0-2.57-7.61 14.92 14.92 0 0 0-6.7-3c1.89-.63 4.16-1 5.38-2.79 1.63-2.38.77-6.13-2-7.25-1.68-.88-3.59-.47-5.32 0v15.74a23.61 23.61 0 0 0 .24 5h-3a54.93 54.93 0 0 0 .2-7c-.04-5.59.02-11.13-.06-16.68zM455 23.68a5.45 5.45 0 0 1 2.75-7.68c2.05-.68 4.16.14 6.23.23v3.19a6.66 6.66 0 0 0-4.31-1.44 3.17 3.17 0 0 0-2.85 3.52c.48 1.67 2.23 2.38 3.59 3.21 2.48 1.32 5.12 3.2 5.65 6.17a7.49 7.49 0 0 1-5.89 8.94c-2.16.74-4.26-.86-6.4-.17v-3.82a6.47 6.47 0 0 0 8.41.22 5 5 0 0 0 .3-6.85c-2.11-2.36-5.63-2.88-7.48-5.52zM41.37 16.2h12.71c0 .84.07 1.7.11 2.55a20.61 20.61 0 0 0-5.19-.29v18.5a13.27 13.27 0 0 0 .25 2.51h-3c.46-7 .06-14 .21-21-1.72 0-3.49-.2-5.15.34.05-.88.05-1.75.06-2.61zM111.23 16.19h2.89c-.4 7-.13 14-.15 21.06 3.06-.21 6.21.4 9.22-.43v2.65h-12c.41-3.17.13-6.37.21-9.55-.07-4.58.23-9.17-.17-13.73zM398.09 16.19h12.7v2.36c-3.34-.22-6.68-.1-10-.1v8.25c2.46-.09 4.95.25 7.37-.3v2.75a55.09 55.09 0 0 0-7.38-.19v8.25c3.34-.09 6.68.19 10-.17v2.41h-12.71c.39-3.49.1-7 .19-10.52-.09-4.23.19-8.5-.17-12.74zM234.16 26.62c.14-7.4 0-14.81 0-22.21A8.36 8.36 0 0 0 233.9 2c-1-1.2-2.63-1.53-4.09-1.75-3.58-.42-7.63-.38-10.55 2.05-1 1-2.38 2.06-2.23 3.62 0 6.94.08 13.89-.18 20.83h-7.61v2.35h7.59c.14 6.62.06 13.26.18 19.88.16 2.64 2.91 4.07 5.24 4.45.09-8.11.2-16.22.15-24.33h7.37c.13 7.37.28 14.75.18 22.12h4.3c-.08-7.37 0-14.74-.16-22.11h2c0 7.37-.06 14.74-.1 22.12h4.51V29.11h7.41c-.11 8.12-.07 16.24-.08 24.37 2.44-.26 5.31-1.77 5.45-4.51.09-6.62 0-13.24 0-19.86h7v-2.4h-7c-.4-7.11-.22-14.25-.09-21.36-.85-2.83-3.81-4.47-6.54-5.08a20 20 0 0 0-8.12.32c-1.06.34-2.55.93-2.44 2.29-.06 7.94-.16 15.82-.11 23.76m4.39-24.15a11.59 11.59 0 0 1 4.8-.08 4 4 0 0 1 2.8 4c0 6.78 0 13.55-.06 20.33h-7.56c.13-8.1.29-16.17.22-24.25zm-10.65 24.22h-7.32c-.38-6.77-.23-13.55-.23-20.33a3.94 3.94 0 0 1 2.77-4 13 13 0 0 1 4.82 0"></path></g></g></svg>