<svg width="208" height="155" viewBox="0 0 208 155" fill="none" xmlns="http://www.w3.org/2000/svg">
    <circle cx="108.5" cy="90.9152" r="63.5" fill="#CCB4FF" fill-opacity="0.3"/>
    <path d="M89 31C90.6 23.4 85.5 19 81.5 16C85 15.5 96.5 18.8527 96.5 32.5C96.5 41 92 45.8333 89 47.5L93.5 57.5C92.7 59.5 90.1667 60.6666 89 61L81 49C85.4 49.8 87.1667 47.6666 87.5 46.5C85.1 46.5 83.5 44.1666 83 43C85.3333 42.1666 87.4 38.6 89 31Z" fill="#BAA7F5"/>
    <path d="M77.4999 14C74.1666 15 67.0999 18 65.4999 22C65.6556 22.6228 66.7421 23.5655 69.8191 22.7088C70.0689 22.6247 70.298 22.5551 70.4999 22.5C70.2628 22.579 70.036 22.6484 69.8191 22.7088C67.8006 23.3878 64.4237 25.0084 62.9999 27.5C60.9999 31 61.9999 33.5 62.9999 35C63.9999 36.5 63.5003 38 62.9999 39C62.4995 40 57.9995 43.5 59.4995 44.5C60.6995 45.3 62.6662 45.1667 63.4995 45C62.1662 46.6667 59.7995 50.2 60.9995 51C62.1995 51.8 64.1662 52.3333 64.9995 52.5C63.4995 52.5 60.7995 52.8 61.9995 54C63.4995 55.5 62.4995 58.5 64.4995 59C66.0995 59.4 70.1662 58.1667 71.9995 57.5C71.1664 59 68.2002 61.8 62.9999 61C62.6664 60.8333 61.8995 59.9 61.4995 57.5C60.9995 54.5 58.9995 56 58.9995 54.5C58.9995 53 59.4995 54 58.9995 52.5C58.4995 51 56.9995 51.5 58.4995 49.5C59.9995 47.5 60.4986 48 58.4995 47.5C56.5004 47 54.5004 47 55.5004 44.5C56.5004 42 60.4995 39.5 59.4995 36C58.4995 32.5 56.9995 27 60.9995 22C64.9995 17 69.9998 14 77.4999 14Z" fill="white"/>
    <path d="M67.2655 14C63.9322 15 56.8655 18 55.2655 22C55.4212 22.6228 56.5077 23.5655 59.5847 22.7088C59.8345 22.6247 60.0636 22.5551 60.2655 22.5C60.0284 22.579 59.8016 22.6484 59.5847 22.7088C57.5662 23.3878 54.1893 25.0084 52.7655 27.5C50.7655 31 51.7655 33.5 52.7655 35C53.7655 36.5 53.2659 38 52.7655 39C52.2651 40 47.7651 43.5 49.2651 44.5C50.4651 45.3 52.4318 45.1667 53.2651 45C51.9318 46.6667 49.5651 50.2 50.7651 51C51.9651 51.8 53.9318 52.3333 54.7651 52.5C53.2651 52.5 50.5651 52.8 51.7651 54C53.2651 55.5 52.2651 58.5 54.2651 59C55.8651 59.4 59.9318 58.1667 61.7651 57.5C60.9321 59 57.9658 61.8 52.7655 61C52.4321 60.8333 51.6651 59.9 51.2651 57.5C50.7651 54.5 48.7651 56 48.7651 54.5C48.7651 53 49.2651 54 48.7651 52.5C48.2651 51 46.7651 51.5 48.2651 49.5C49.7651 47.5 50.2642 48 48.2651 47.5C46.266 47 44.266 47 45.266 44.5C46.266 42 50.2651 39.5 49.2651 36C48.2651 32.5 46.7651 27 50.7651 22C54.7651 17 59.7654 14 67.2655 14Z" fill="white"/>
    <path d="M62.4452 53.3866C61.2091 53.2499 60.2853 52.9356 59.6302 52.5447M59.6302 52.5447C58.268 51.7318 58.0679 50.5874 58.639 50.0189C59.3156 49.3453 59.7667 48.0543 59.9077 47.4931C58.7799 47.6334 56.3551 47.6614 55.6784 46.6511C54.8326 45.3882 54.8326 44.9672 56.9472 42.0205C59.0617 39.0737 60.3304 36.5478 59.4846 35.2849C58.8079 34.2746 58.3568 32.8994 58.2159 32.3382C57.8334 29.4194 58.3733 26.7302 59.5343 24.3397M59.6302 52.5447C59.2997 53.2463 58.8078 54.7337 59.4846 55.0705C60.3306 55.4915 61.5993 55.9124 61.5993 57.1754C61.5993 57.8043 61.3896 58.8509 61.8058 59.7432M87.8196 48.756L93.7403 59.7012C89.3421 67.1102 80.9121 67.2786 77.2469 66.4367L76.8663 65.1738M87.8196 48.756C84.4364 48.4192 81.0531 45.5285 79.7844 44.1253C82.7447 44.5463 83.5906 39.9156 82.3218 36.9688C81.3069 34.6114 78.0928 36.5478 76.824 36.9688C78.9386 22.2349 73.4408 20.551 68.3659 22.6558C64.306 24.3397 60.7866 24.48 59.5343 24.3397M87.8196 48.756C90.921 48.6156 97.2928 45.304 97.9694 33.1801C98.8152 18.0252 81.8989 11.2897 73.8637 13.3945C73.3027 13.5415 72.7376 13.7131 72.172 13.9084M59.5343 24.3397C60.0398 23.2989 60.6631 22.3148 61.3792 21.3929M62.0223 31.4962C63.291 31.9172 66.0822 32.9275 67.0971 33.6011M62.8681 34.864L63.7139 36.1269M63.7139 36.1269L68.3659 38.2317L63.7139 39.1579M63.7139 36.1269V39.1579M62.0223 39.4946L63.7139 39.1579M72.172 13.9084C69.4656 12.2989 64.2777 13.1892 62.022 13.8355C56.9294 15.5947 51.8059 19.281 49.3843 24.2669M72.172 13.9084C68.1425 15.3003 64.0936 17.8988 61.3792 21.3929M52.2952 53.3138C51.0591 53.1771 50.1353 52.8628 49.4802 52.4718M49.4802 52.4718C48.118 51.6589 47.9178 50.5145 48.489 49.946C49.1656 49.2725 49.6167 47.9815 49.7577 47.4202C48.6299 47.5605 46.2051 47.5886 45.5284 46.5783C44.6826 45.3153 44.6826 44.8944 46.7971 41.9476C48.9117 39.0008 50.1804 36.475 49.3346 35.2121C48.6579 34.2017 48.2068 32.8266 48.0659 32.2653C47.6834 29.3466 48.2233 26.6573 49.3843 24.2669M49.4802 52.4718C49.1497 53.1734 48.6578 54.6609 49.3346 54.9976C50.1806 55.4186 51.4493 55.8396 51.4493 57.1025C51.4493 58.3654 50.6035 61.3122 55.6784 61.3122C57.9966 61.3122 60.1492 60.5802 61.8058 59.7432M49.3843 24.2669C50.6366 24.4072 54.1559 24.2669 58.2159 22.583C58.9151 22.1863 60.5267 21.3929 61.3792 21.3929M61.8058 59.7432C62.2014 60.591 63.1621 61.2995 65.4053 61.3779M65.4053 61.3779C65.5416 61.3826 65.6825 61.385 65.8284 61.385C69.8883 61.385 73.4408 59.1399 74.7095 58.0173L76.8663 65.1738M65.4053 61.3779L67.0969 66.8576C69.0988 67.1383 73.8554 67.1944 76.8663 65.1738M51.8723 31.4962C53.141 31.9172 55.9322 32.9275 56.9471 33.6011M52.7181 34.864L53.5639 36.1269M53.5639 36.1269L58.2159 38.2317L53.5639 39.1579M53.5639 36.1269V39.1579M51.8723 39.4946L53.5639 39.1579" stroke="#8840E3"/>
    <path d="M137.43 62.01C134.626 58.9791 135.883 54.938 136.861 53.2963C140.271 47.0073 135.693 42.0884 132.978 40.4152C137.808 45.3403 135.062 49.5077 132.315 53.6751C130.118 57.0091 130.01 60.242 130.231 61.4417L125.969 48.3712L125.78 62.01M127.011 119.88C129.815 122.911 128.558 126.952 127.579 128.594C124.17 134.883 128.747 139.802 131.463 141.475C126.632 136.55 129.379 132.383 132.126 128.215C134.323 124.881 134.43 121.648 134.209 120.449L138.471 133.519L138.661 119.88" stroke="#8840E3"/>
    <path d="M148.119 66.2144C146.691 62.3407 149.4 59.0894 150.933 57.948C156.492 53.4455 154.149 47.148 152.282 44.5621C154.857 50.9622 150.723 53.7591 146.589 56.556C143.282 58.7935 141.944 61.7385 141.688 62.9313L142.76 49.2252L137.359 61.7506M116.322 115.676C117.75 119.55 115.041 122.801 113.508 123.942C107.948 128.445 110.292 134.742 112.159 137.328C109.584 130.928 113.718 128.131 117.852 125.334C121.159 123.097 122.497 120.152 122.753 118.959L121.681 132.665L127.082 120.14" stroke="#8840E3"/>
    <path d="M156.433 74.2685C156.611 70.1437 160.365 68.1902 162.22 67.7291C169.086 65.7215 169.355 59.0074 168.631 55.9013C168.536 62.7991 163.642 63.7835 158.749 64.7678C154.835 65.5553 152.464 67.7556 151.768 68.7573L158.047 56.5272L148.229 65.9968M108.007 107.622C107.829 111.747 104.075 113.7 102.22 114.161C95.3537 116.169 95.0848 122.883 95.8087 125.989C95.9042 119.091 100.797 118.107 105.691 117.123C109.605 116.335 111.976 114.135 112.672 113.133L106.393 125.363L116.21 115.894" stroke="#8840E3"/>
    <path d="M160.956 84.7262C162.688 80.9787 166.903 80.5992 168.794 80.8778C175.908 81.6315 178.71 75.5238 179.221 72.3757C176.51 78.7193 171.61 77.7694 166.71 76.8196C162.79 76.0597 159.761 77.1933 158.736 77.8551L169.193 68.9306L156.513 73.9567M103.486 97.1642C101.753 100.912 97.5379 101.291 95.647 101.013C88.533 100.259 85.7317 106.367 85.2203 109.515C87.9311 103.171 92.8311 104.121 97.731 105.071C101.651 105.831 104.681 104.697 105.705 104.035L95.2479 112.96L107.928 107.934" stroke="#8840E3"/>
    <path d="M161.155 96.1544C164.186 93.3509 168.227 94.6074 169.869 95.5861C176.158 98.9958 181.077 94.418 182.75 91.7029C177.825 96.5333 173.657 93.7865 169.49 91.0398C166.156 88.8424 162.923 88.7351 161.723 88.9561L174.794 84.694L161.155 84.5046M103.285 85.7359C100.254 88.5394 96.2128 87.2829 94.5711 86.3041C88.2821 82.8944 83.3633 87.4723 81.69 90.1874C86.6151 85.357 90.7825 88.1038 94.95 90.8505C98.2839 93.0478 101.517 93.1552 102.717 92.9342L89.646 97.1963L103.285 97.3857" stroke="#8840E3"/>
    <path d="M156.951 106.844C160.824 105.416 164.076 108.125 165.217 109.658C169.719 115.217 176.017 112.873 178.603 111.007C172.203 113.581 169.406 109.447 166.609 105.313C164.372 102.006 161.426 100.668 160.234 100.413L173.94 101.484L161.414 96.0833M107.489 75.0464C103.615 76.4746 100.364 73.7655 99.2227 72.2325C94.7201 66.6732 88.4226 69.0169 85.8367 70.8837C92.2368 68.3091 95.0337 72.443 97.8306 76.577C100.068 79.8841 103.013 81.222 104.206 81.4776L90.4999 80.4061L103.025 85.8071" stroke="#8840E3"/>
    <path d="M148.897 115.158C153.022 115.336 154.976 119.09 155.437 120.945C157.444 127.811 164.158 128.08 167.265 127.356C160.367 127.261 159.382 122.368 158.398 117.475C157.61 113.56 155.41 111.189 154.408 110.493L166.639 116.772L157.169 106.955M115.544 66.7322C111.419 66.5544 109.466 62.8003 109.004 60.9454C106.997 54.079 100.283 53.8101 97.1766 54.534C104.074 54.6295 105.059 59.5227 106.043 64.4158C106.831 68.3304 109.031 70.7014 110.033 71.3976L97.8025 65.1184L107.272 74.9358" stroke="#8840E3"/>
    <path d="M138.439 119.68C142.187 121.413 142.566 125.628 142.288 127.519C141.534 134.633 147.642 137.434 150.79 137.945C144.446 135.235 145.396 130.335 146.346 125.435C147.106 121.515 145.972 118.485 145.31 117.46L154.235 127.918L149.209 115.238M126.001 62.2101C122.254 60.4774 121.874 56.2625 122.153 54.3716C122.907 47.2575 116.799 44.4562 113.651 43.9448C119.994 46.6556 119.045 51.5556 118.095 56.4556C117.335 60.3755 118.468 63.4051 119.13 64.4298L110.206 53.9724L115.232 66.6528" stroke="#8840E3"/>
    <circle cx="135.476" cy="96.4936" r="25.4773" fill="#D0C0FF"/>
    <circle cx="132.22" cy="90.9926" r="22.7314" stroke="#8840E3"/>
    <path d="M111.131 77.7819C99.2412 99.8623 116.792 115.715 117.358 116.281C106.035 110.619 93.5793 85.7082 111.131 69.8556C125.172 57.1736 142.269 62.6843 149.063 67.0248C140.382 63.2504 120.642 60.1176 111.131 77.7819Z" fill="white"/>
    <circle cx="132.22" cy="90.9925" r="29.5508" stroke="#8840E3"/>
    <path d="M171.457 65.6421C182.993 51.4175 187.607 38.1195 182.507 29.2856C175.274 16.7577 150.497 16.6596 120.895 27.1428M79.892 124.299C53.7981 132.121 32.6486 131.024 26.0592 119.61C19.678 108.558 28.5025 90.5176 47.067 72.4174" stroke="#8840E3" stroke-dasharray="4 4"/>
    <path d="M185.802 85.9561C197.396 78.4375 203.778 70.1037 202.768 62.0696C200.416 43.3576 158.814 32.9926 108.118 37.8099M76.0526 112.261C37.0009 112.226 7.75571 102.427 5.79489 86.8263C4.404 75.7599 17.0371 64.1248 37.9999 54.8348" stroke="#8840E3"/>
    <path d="M23 7.41516C23.5349 11.0366 26.3786 13.8803 30 14.4152C26.3786 14.9501 23.5349 17.7937 23 21.4152C22.4651 17.7937 19.6214 14.9501 16 14.4152C19.6214 13.8803 22.4651 11.0366 23 7.41516Z" fill="#8840E3"/>
    <path d="M7 53.4152C7.45848 56.5192 9.89593 58.9567 13 59.4152C9.89593 59.8736 7.45848 62.3111 7 65.4152C6.54152 62.3111 4.10407 59.8736 1 59.4152C4.10407 58.9567 6.54152 56.5192 7 53.4152Z" fill="#8840E3"/>
    <path d="M40 116.415C40.2292 117.967 41.448 119.186 43 119.415C41.448 119.644 40.2292 120.863 40 122.415C39.7708 120.863 38.552 119.644 37 119.415C38.552 119.186 39.7708 117.967 40 116.415Z" fill="#8840E3"/>
    <path d="M187 62.4152C187.229 63.9672 188.448 65.1859 190 65.4152C188.448 65.6444 187.229 66.8631 187 68.4152C186.771 66.8631 185.552 65.6444 184 65.4152C185.552 65.1859 186.771 63.9672 187 62.4152Z" fill="#8840E3"/>
    <path d="M201 16.4152C201.458 19.5192 203.896 21.9567 207 22.4152C203.896 22.8736 201.458 25.3111 201 28.4152C200.542 25.3111 198.104 22.8736 195 22.4152C198.104 21.9567 200.542 19.5192 201 16.4152Z" fill="#8840E3"/>
    <path d="M196 101.415C196.458 104.519 198.896 106.957 202 107.415C198.896 107.874 196.458 110.311 196 113.415C195.542 110.311 193.104 107.874 190 107.415C193.104 106.957 195.542 104.519 196 101.415Z" fill="#8840E3"/>
    <path d="M117 14.4152C117.229 15.9672 118.448 17.1859 120 17.4152C118.448 17.6444 117.229 18.8631 117 20.4152C116.771 18.8631 115.552 17.6444 114 17.4152C115.552 17.1859 116.771 15.9672 117 14.4152Z" fill="#8840E3"/>
</svg>
