<?xml version="1.0" encoding="iso-8859-1"?>
<!-- Uploaded to: SVG Repo, www.svgrepo.com, Generator: SVG Repo Mixer Tools -->
<svg fill="#000000" height="800px" width="800px" version="1.1" id="Layer_1" xmlns="http://www.w3.org/2000/svg" xmlns:xlink="http://www.w3.org/1999/xlink" 
	 viewBox="0 0 512 512" xml:space="preserve">
<g>
	<g>
		<path d="M39.513,129.681C17.691,129.681,0,147.372,0,169.194v238.191c0,21.822,17.691,39.513,39.513,39.513H56.21v15.205
			c0,4.684,3.798,8.481,8.481,8.481h33.122c4.684,0,8.481-3.798,8.481-8.481v-15.205V129.681H39.513z"/>
	</g>
</g>
<g>
	<g>
		<path d="M472.487,129.681h-66.781v317.217v15.205c0,4.684,3.798,8.481,8.481,8.481h33.122c4.684,0,8.481-3.798,8.481-8.481
			v-15.205h16.697c21.822,0,39.513-17.691,39.513-39.513V169.194C512,147.372,494.309,129.681,472.487,129.681z"/>
	</g>
</g>
<g>
	<g>
		<path d="M313.598,41.415H198.403c-24.796,0-45.361,20.174-45.361,44.97v360.514h205.526V86.385
			C358.568,61.589,338.394,41.415,313.598,41.415z M315.158,129.681H196.842V86.385c0-0.86,0.701-1.562,1.562-1.562h115.193
			c0.86,0,1.562,0.7,1.562,1.562V129.681z"/>
	</g>
</g>
</svg>