<?xml version="1.0" encoding="utf-8"?>
<!-- Uploaded to: SVG Repo, www.svgrepo.com, Generator: SVG Repo Mixer Tools -->
<svg width="800px" height="800px" viewBox="0 0 24 24" fill="none" xmlns="http://www.w3.org/2000/svg">
<g id="style=fill">
<g id="calendar-line">
<path id="Subtract" fill-rule="evenodd" clip-rule="evenodd" d="M1.25 18L1.25 16.7484C1.2673 16.7495 1.28475 16.75 1.30233 16.75L22.6977 16.75C22.7153 16.75 22.7327 16.7495 22.75 16.7484L22.75 18C22.75 20.6234 20.6234 22.75 18 22.75L6 22.75C3.37665 22.75 1.25 20.6234 1.25 18ZM22.75 8L22.75 15.2516C22.7327 15.2505 22.7153 15.25 22.6977 15.25L1.30233 15.25C1.28475 15.25 1.2673 15.2505 1.25 15.2516L1.25 8C1.25 5.37665 3.37665 3.25 6 3.25L18 3.25C20.6234 3.25 22.75 5.37665 22.75 8ZM9 10.75C8.58579 10.75 8.25 11.0858 8.25 11.5C8.25 11.9142 8.58579 12.25 9 12.25L15 12.25C15.4142 12.25 15.75 11.9142 15.75 11.5C15.75 11.0858 15.4142 10.75 15 10.75L9 10.75Z" fill="#000000"/>
<path id="line (Stroke)" fill-rule="evenodd" clip-rule="evenodd" d="M8 1.25C8.41421 1.25 8.75 1.58579 8.75 2V5.5C8.75 5.91421 8.41421 6.25 8 6.25C7.58579 6.25 7.25 5.91421 7.25 5.5V2C7.25 1.58579 7.58579 1.25 8 1.25Z" fill="#000000"/>
<path id="line (Stroke)_2" fill-rule="evenodd" clip-rule="evenodd" d="M16 1.25C16.4142 1.25 16.75 1.58579 16.75 2V5.5C16.75 5.91421 16.4142 6.25 16 6.25C15.5858 6.25 15.25 5.91421 15.25 5.5V2C15.25 1.58579 15.5858 1.25 16 1.25Z" fill="#000000"/>
</g>
</g>
</svg>